<svg width="58" height="58" viewBox="0 0 58 58" fill="none" xmlns="http://www.w3.org/2000/svg">
<g clip-path="url(#clip0_2_34)">
<path d="M57.62 0H0V57.62H57.62V0Z" fill="#F6F6F6"/>
<path d="M5.47999 3.46H3.45999V5.48H5.47999V3.46Z" fill="#010101"/>
<path d="M7.49 3.46H5.47V5.48H7.49V3.46Z" fill="#010101"/>
<path d="M9.50999 3.46H7.48999V5.48H9.50999V3.46Z" fill="#010101"/>
<path d="M11.53 3.46H9.51001V5.48H11.53V3.46Z" fill="#010101"/>
<path d="M13.54 3.46H11.52V5.48H13.54V3.46Z" fill="#010101"/>
<path d="M15.56 3.46H13.54V5.48H15.56V3.46Z" fill="#010101"/>
<path d="M17.58 3.46H15.56V5.48H17.58V3.46Z" fill="#010101"/>
<path d="M21.61 3.46H19.59V5.48H21.61V3.46Z" fill="#010101"/>
<path d="M23.63 3.46H21.61V5.48H23.63V3.46Z" fill="#010101"/>
<path d="M25.64 3.46H23.62V5.48H25.64V3.46Z" fill="#010101"/>
<path d="M27.66 3.46H25.64V5.48H27.66V3.46Z" fill="#010101"/>
<path d="M33.71 3.46H31.69V5.48H33.71V3.46Z" fill="#010101"/>
<path d="M41.78 3.46H39.76V5.48H41.78V3.46Z" fill="#010101"/>
<path d="M43.79 3.46H41.77V5.48H43.79V3.46Z" fill="#010101"/>
<path d="M45.81 3.46H43.79V5.48H45.81V3.46Z" fill="#010101"/>
<path d="M47.83 3.46H45.81V5.48H47.83V3.46Z" fill="#010101"/>
<path d="M49.84 3.46H47.82V5.48H49.84V3.46Z" fill="#010101"/>
<path d="M51.86 3.46H49.84V5.48H51.86V3.46Z" fill="#010101"/>
<path d="M53.87 3.46H51.85V5.48H53.87V3.46Z" fill="#010101"/>
<path d="M5.47999 5.47H3.45999V7.49H5.47999V5.47Z" fill="#010101"/>
<path d="M17.58 5.47H15.56V7.49H17.58V5.47Z" fill="#010101"/>
<path d="M27.66 5.47H25.64V7.49H27.66V5.47Z" fill="#010101"/>
<path d="M29.68 5.47H27.66V7.49H29.68V5.47Z" fill="#010101"/>
<path d="M41.78 5.47H39.76V7.49H41.78V5.47Z" fill="#010101"/>
<path d="M53.87 5.47H51.85V7.49H53.87V5.47Z" fill="#010101"/>
<path d="M5.47999 7.49H3.45999V9.51H5.47999V7.49Z" fill="#010101"/>
<path d="M9.50999 7.49H7.48999V9.51H9.50999V7.49Z" fill="#010101"/>
<path d="M11.53 7.49H9.51001V9.51H11.53V7.49Z" fill="#010101"/>
<path d="M13.54 7.49H11.52V9.51H13.54V7.49Z" fill="#010101"/>
<path d="M17.58 7.49H15.56V9.51H17.58V7.49Z" fill="#010101"/>
<path d="M23.63 7.49H21.61V9.51H23.63V7.49Z" fill="#010101"/>
<path d="M27.66 7.49H25.64V9.51H27.66V7.49Z" fill="#010101"/>
<path d="M31.69 7.49H29.67V9.51H31.69V7.49Z" fill="#010101"/>
<path d="M33.71 7.49H31.69V9.51H33.71V7.49Z" fill="#010101"/>
<path d="M37.74 7.49H35.72V9.51H37.74V7.49Z" fill="#010101"/>
<path d="M41.78 7.49H39.76V9.51H41.78V7.49Z" fill="#010101"/>
<path d="M45.81 7.49H43.79V9.51H45.81V7.49Z" fill="#010101"/>
<path d="M47.83 7.49H45.81V9.51H47.83V7.49Z" fill="#010101"/>
<path d="M49.84 7.49H47.82V9.51H49.84V7.49Z" fill="#010101"/>
<path d="M53.87 7.49H51.85V9.51H53.87V7.49Z" fill="#010101"/>
<path d="M5.47999 9.51H3.45999V11.53H5.47999V9.51Z" fill="#010101"/>
<path d="M9.50999 9.51H7.48999V11.53H9.50999V9.51Z" fill="#010101"/>
<path d="M11.53 9.51H9.51001V11.53H11.53V9.51Z" fill="#010101"/>
<path d="M13.54 9.51H11.52V11.53H13.54V9.51Z" fill="#010101"/>
<path d="M17.58 9.51H15.56V11.53H17.58V9.51Z" fill="#010101"/>
<path d="M25.64 9.51H23.62V11.53H25.64V9.51Z" fill="#010101"/>
<path d="M27.66 9.51H25.64V11.53H27.66V9.51Z" fill="#010101"/>
<path d="M31.69 9.51H29.67V11.53H31.69V9.51Z" fill="#010101"/>
<path d="M37.74 9.51H35.72V11.53H37.74V9.51Z" fill="#010101"/>
<path d="M41.78 9.51H39.76V11.53H41.78V9.51Z" fill="#010101"/>
<path d="M45.81 9.51H43.79V11.53H45.81V9.51Z" fill="#010101"/>
<path d="M47.83 9.51H45.81V11.53H47.83V9.51Z" fill="#010101"/>
<path d="M49.84 9.51H47.82V11.53H49.84V9.51Z" fill="#010101"/>
<path d="M53.87 9.51H51.85V11.53H53.87V9.51Z" fill="#010101"/>
<path d="M5.47999 11.52H3.45999V13.54H5.47999V11.52Z" fill="#010101"/>
<path d="M9.50999 11.52H7.48999V13.54H9.50999V11.52Z" fill="#010101"/>
<path d="M11.53 11.52H9.51001V13.54H11.53V11.52Z" fill="#010101"/>
<path d="M13.54 11.52H11.52V13.54H13.54V11.52Z" fill="#010101"/>
<path d="M17.58 11.52H15.56V13.54H17.58V11.52Z" fill="#010101"/>
<path d="M25.64 11.52H23.62V13.54H25.64V11.52Z" fill="#010101"/>
<path d="M27.66 11.52H25.64V13.54H27.66V11.52Z" fill="#010101"/>
<path d="M29.68 11.52H27.66V13.54H29.68V11.52Z" fill="#010101"/>
<path d="M31.69 11.52H29.67V13.54H31.69V11.52Z" fill="#010101"/>
<path d="M33.71 11.52H31.69V13.54H33.71V11.52Z" fill="#010101"/>
<path d="M37.74 11.52H35.72V13.54H37.74V11.52Z" fill="#010101"/>
<path d="M41.78 11.52H39.76V13.54H41.78V11.52Z" fill="#010101"/>
<path d="M45.81 11.52H43.79V13.54H45.81V11.52Z" fill="#010101"/>
<path d="M47.83 11.52H45.81V13.54H47.83V11.52Z" fill="#010101"/>
<path d="M49.84 11.52H47.82V13.54H49.84V11.52Z" fill="#010101"/>
<path d="M53.87 11.52H51.85V13.54H53.87V11.52Z" fill="#010101"/>
<path d="M5.47999 13.54H3.45999V15.56H5.47999V13.54Z" fill="#010101"/>
<path d="M17.58 13.54H15.56V15.56H17.58V13.54Z" fill="#010101"/>
<path d="M23.63 13.54H21.61V15.56H23.63V13.54Z" fill="#010101"/>
<path d="M27.66 13.54H25.64V15.56H27.66V13.54Z" fill="#010101"/>
<path d="M31.69 13.54H29.67V15.56H31.69V13.54Z" fill="#010101"/>
<path d="M33.71 13.54H31.69V15.56H33.71V13.54Z" fill="#010101"/>
<path d="M37.74 13.54H35.72V15.56H37.74V13.54Z" fill="#010101"/>
<path d="M41.78 13.54H39.76V15.56H41.78V13.54Z" fill="#010101"/>
<path d="M53.87 13.54H51.85V15.56H53.87V13.54Z" fill="#010101"/>
<path d="M5.47999 15.56H3.45999V17.58H5.47999V15.56Z" fill="#010101"/>
<path d="M7.49 15.56H5.47V17.58H7.49V15.56Z" fill="#010101"/>
<path d="M9.50999 15.56H7.48999V17.58H9.50999V15.56Z" fill="#010101"/>
<path d="M11.53 15.56H9.51001V17.58H11.53V15.56Z" fill="#010101"/>
<path d="M13.54 15.56H11.52V17.58H13.54V15.56Z" fill="#010101"/>
<path d="M15.56 15.56H13.54V17.58H15.56V15.56Z" fill="#010101"/>
<path d="M17.58 15.56H15.56V17.58H17.58V15.56Z" fill="#010101"/>
<path d="M21.61 15.56H19.59V17.58H21.61V15.56Z" fill="#010101"/>
<path d="M25.64 15.56H23.62V17.58H25.64V15.56Z" fill="#010101"/>
<path d="M29.68 15.56H27.66V17.58H29.68V15.56Z" fill="#010101"/>
<path d="M33.71 15.56H31.69V17.58H33.71V15.56Z" fill="#010101"/>
<path d="M37.74 15.56H35.72V17.58H37.74V15.56Z" fill="#010101"/>
<path d="M41.78 15.56H39.76V17.58H41.78V15.56Z" fill="#010101"/>
<path d="M43.79 15.56H41.77V17.58H43.79V15.56Z" fill="#010101"/>
<path d="M45.81 15.56H43.79V17.58H45.81V15.56Z" fill="#010101"/>
<path d="M47.83 15.56H45.81V17.58H47.83V15.56Z" fill="#010101"/>
<path d="M49.84 15.56H47.82V17.58H49.84V15.56Z" fill="#010101"/>
<path d="M51.86 15.56H49.84V17.58H51.86V15.56Z" fill="#010101"/>
<path d="M53.87 15.56H51.85V17.58H53.87V15.56Z" fill="#010101"/>
<path d="M21.61 17.57H19.59V19.59H21.61V17.57Z" fill="#010101"/>
<path d="M23.63 17.57H21.61V19.59H23.63V17.57Z" fill="#010101"/>
<path d="M29.68 17.57H27.66V19.59H29.68V17.57Z" fill="#010101"/>
<path d="M31.69 17.57H29.67V19.59H31.69V17.57Z" fill="#010101"/>
<path d="M5.47999 19.59H3.45999V21.61H5.47999V19.59Z" fill="#010101"/>
<path d="M7.49 19.59H5.47V21.61H7.49V19.59Z" fill="#010101"/>
<path d="M11.53 19.59H9.51001V21.61H11.53V19.59Z" fill="#010101"/>
<path d="M13.54 19.59H11.52V21.61H13.54V19.59Z" fill="#010101"/>
<path d="M17.58 19.59H15.56V21.61H17.58V19.59Z" fill="#010101"/>
<path d="M23.63 19.59H21.61V21.61H23.63V19.59Z" fill="#010101"/>
<path d="M29.68 19.59H27.66V21.61H29.68V19.59Z" fill="#010101"/>
<path d="M33.71 19.59H31.69V21.61H33.71V19.59Z" fill="#010101"/>
<path d="M35.73 19.59H33.71V21.61H35.73V19.59Z" fill="#010101"/>
<path d="M41.78 19.59H39.76V21.61H41.78V19.59Z" fill="#010101"/>
<path d="M53.87 19.59H51.85V21.61H53.87V19.59Z" fill="#010101"/>
<path d="M5.47999 21.61H3.45999V23.63H5.47999V21.61Z" fill="#010101"/>
<path d="M9.50999 21.61H7.48999V23.63H9.50999V21.61Z" fill="#010101"/>
<path d="M11.53 21.61H9.51001V23.63H11.53V21.61Z" fill="#010101"/>
<path d="M13.54 21.61H11.52V23.63H13.54V21.61Z" fill="#010101"/>
<path d="M21.61 21.61H19.59V23.63H21.61V21.61Z" fill="#010101"/>
<path d="M25.64 21.61H23.62V23.63H25.64V21.61Z" fill="#010101"/>
<path d="M31.69 21.61H29.67V23.63H31.69V21.61Z" fill="#010101"/>
<path d="M33.71 21.61H31.69V23.63H33.71V21.61Z" fill="#010101"/>
<path d="M35.73 21.61H33.71V23.63H35.73V21.61Z" fill="#010101"/>
<path d="M39.76 21.61H37.74V23.63H39.76V21.61Z" fill="#010101"/>
<path d="M43.79 21.61H41.77V23.63H43.79V21.61Z" fill="#010101"/>
<path d="M45.81 21.61H43.79V23.63H45.81V21.61Z" fill="#010101"/>
<path d="M47.83 21.61H45.81V23.63H47.83V21.61Z" fill="#010101"/>
<path d="M49.84 21.61H47.82V23.63H49.84V21.61Z" fill="#010101"/>
<path d="M51.86 21.61H49.84V23.63H51.86V21.61Z" fill="#010101"/>
<path d="M5.47999 23.62H3.45999V25.64H5.47999V23.62Z" fill="#010101"/>
<path d="M9.50999 23.62H7.48999V25.64H9.50999V23.62Z" fill="#010101"/>
<path d="M13.54 23.62H11.52V25.64H13.54V23.62Z" fill="#010101"/>
<path d="M17.58 23.62H15.56V25.64H17.58V23.62Z" fill="#010101"/>
<path d="M21.61 23.62H19.59V25.64H21.61V23.62Z" fill="#010101"/>
<path d="M23.63 23.62H21.61V25.64H23.63V23.62Z" fill="#010101"/>
<path d="M29.68 23.62H27.66V25.64H29.68V23.62Z" fill="#010101"/>
<path d="M31.69 23.62H29.67V25.64H31.69V23.62Z" fill="#010101"/>
<path d="M33.71 23.62H31.69V25.64H33.71V23.62Z" fill="#010101"/>
<path d="M35.73 23.62H33.71V25.64H35.73V23.62Z" fill="#010101"/>
<path d="M37.74 23.62H35.72V25.64H37.74V23.62Z" fill="#010101"/>
<path d="M41.78 23.62H39.76V25.64H41.78V23.62Z" fill="#010101"/>
<path d="M43.79 23.62H41.77V25.64H43.79V23.62Z" fill="#010101"/>
<path d="M47.83 23.62H45.81V25.64H47.83V23.62Z" fill="#010101"/>
<path d="M53.87 23.62H51.85V25.64H53.87V23.62Z" fill="#010101"/>
<path d="M7.49 25.64H5.47V27.66H7.49V25.64Z" fill="#010101"/>
<path d="M9.50999 25.64H7.48999V27.66H9.50999V25.64Z" fill="#010101"/>
<path d="M21.61 25.64H19.59V27.66H21.61V25.64Z" fill="#010101"/>
<path d="M33.71 25.64H31.69V27.66H33.71V25.64Z" fill="#010101"/>
<path d="M37.74 25.64H35.72V27.66H37.74V25.64Z" fill="#010101"/>
<path d="M43.79 25.64H41.77V27.66H43.79V25.64Z" fill="#010101"/>
<path d="M47.83 25.64H45.81V27.66H47.83V25.64Z" fill="#010101"/>
<path d="M49.84 25.64H47.82V27.66H49.84V25.64Z" fill="#010101"/>
<path d="M51.86 25.64H49.84V27.66H51.86V25.64Z" fill="#010101"/>
<path d="M53.87 25.64H51.85V27.66H53.87V25.64Z" fill="#010101"/>
<path d="M7.49 27.66H5.47V29.68H7.49V27.66Z" fill="#010101"/>
<path d="M9.50999 27.66H7.48999V29.68H9.50999V27.66Z" fill="#010101"/>
<path d="M11.53 27.66H9.51001V29.68H11.53V27.66Z" fill="#010101"/>
<path d="M15.56 27.66H13.54V29.68H15.56V27.66Z" fill="#010101"/>
<path d="M17.58 27.66H15.56V29.68H17.58V27.66Z" fill="#010101"/>
<path d="M21.61 27.66H19.59V29.68H21.61V27.66Z" fill="#010101"/>
<path d="M23.63 27.66H21.61V29.68H23.63V27.66Z" fill="#010101"/>
<path d="M25.64 27.66H23.62V29.68H25.64V27.66Z" fill="#010101"/>
<path d="M29.68 27.66H27.66V29.68H29.68V27.66Z" fill="#010101"/>
<path d="M35.73 27.66H33.71V29.68H35.73V27.66Z" fill="#010101"/>
<path d="M37.74 27.66H35.72V29.68H37.74V27.66Z" fill="#010101"/>
<path d="M41.78 27.66H39.76V29.68H41.78V27.66Z" fill="#010101"/>
<path d="M53.87 27.66H51.85V29.68H53.87V27.66Z" fill="#010101"/>
<path d="M5.47999 29.67H3.45999V31.69H5.47999V29.67Z" fill="#010101"/>
<path d="M11.53 29.67H9.51001V31.69H11.53V29.67Z" fill="#010101"/>
<path d="M15.56 29.67H13.54V31.69H15.56V29.67Z" fill="#010101"/>
<path d="M19.59 29.67H17.57V31.69H19.59V29.67Z" fill="#010101"/>
<path d="M21.61 29.67H19.59V31.69H21.61V29.67Z" fill="#010101"/>
<path d="M23.63 29.67H21.61V31.69H23.63V29.67Z" fill="#010101"/>
<path d="M25.64 29.67H23.62V31.69H25.64V29.67Z" fill="#010101"/>
<path d="M29.68 29.67H27.66V31.69H29.68V29.67Z" fill="#010101"/>
<path d="M31.69 29.67H29.67V31.69H31.69V29.67Z" fill="#010101"/>
<path d="M35.73 29.67H33.71V31.69H35.73V29.67Z" fill="#010101"/>
<path d="M37.74 29.67H35.72V31.69H37.74V29.67Z" fill="#010101"/>
<path d="M39.76 29.67H37.74V31.69H39.76V29.67Z" fill="#010101"/>
<path d="M45.81 29.67H43.79V31.69H45.81V29.67Z" fill="#010101"/>
<path d="M51.86 29.67H49.84V31.69H51.86V29.67Z" fill="#010101"/>
<path d="M5.47999 31.69H3.45999V33.71H5.47999V31.69Z" fill="#010101"/>
<path d="M7.49 31.69H5.47V33.71H7.49V31.69Z" fill="#010101"/>
<path d="M9.50999 31.69H7.48999V33.71H9.50999V31.69Z" fill="#010101"/>
<path d="M13.54 31.69H11.52V33.71H13.54V31.69Z" fill="#010101"/>
<path d="M17.58 31.69H15.56V33.71H17.58V31.69Z" fill="#010101"/>
<path d="M21.61 31.69H19.59V33.71H21.61V31.69Z" fill="#010101"/>
<path d="M25.64 31.69H23.62V33.71H25.64V31.69Z" fill="#010101"/>
<path d="M35.73 31.69H33.71V33.71H35.73V31.69Z" fill="#010101"/>
<path d="M39.76 31.69H37.74V33.71H39.76V31.69Z" fill="#010101"/>
<path d="M41.78 31.69H39.76V33.71H41.78V31.69Z" fill="#010101"/>
<path d="M45.81 31.69H43.79V33.71H45.81V31.69Z" fill="#010101"/>
<path d="M47.83 31.69H45.81V33.71H47.83V31.69Z" fill="#010101"/>
<path d="M49.84 31.69H47.82V33.71H49.84V31.69Z" fill="#010101"/>
<path d="M51.86 31.69H49.84V33.71H51.86V31.69Z" fill="#010101"/>
<path d="M53.87 31.69H51.85V33.71H53.87V31.69Z" fill="#010101"/>
<path d="M5.47999 33.71H3.45999V35.73H5.47999V33.71Z" fill="#010101"/>
<path d="M11.53 33.71H9.51001V35.73H11.53V33.71Z" fill="#010101"/>
<path d="M13.54 33.71H11.52V35.73H13.54V33.71Z" fill="#010101"/>
<path d="M21.61 33.71H19.59V35.73H21.61V33.71Z" fill="#010101"/>
<path d="M23.63 33.71H21.61V35.73H23.63V33.71Z" fill="#010101"/>
<path d="M25.64 33.71H23.62V35.73H25.64V33.71Z" fill="#010101"/>
<path d="M27.66 33.71H25.64V35.73H27.66V33.71Z" fill="#010101"/>
<path d="M37.74 33.71H35.72V35.73H37.74V33.71Z" fill="#010101"/>
<path d="M39.76 33.71H37.74V35.73H39.76V33.71Z" fill="#010101"/>
<path d="M43.79 33.71H41.77V35.73H43.79V33.71Z" fill="#010101"/>
<path d="M47.83 33.71H45.81V35.73H47.83V33.71Z" fill="#010101"/>
<path d="M49.84 33.71H47.82V35.73H49.84V33.71Z" fill="#010101"/>
<path d="M53.87 33.71H51.85V35.73H53.87V33.71Z" fill="#010101"/>
<path d="M5.47999 35.72H3.45999V37.74H5.47999V35.72Z" fill="#010101"/>
<path d="M13.54 35.72H11.52V37.74H13.54V35.72Z" fill="#010101"/>
<path d="M17.58 35.72H15.56V37.74H17.58V35.72Z" fill="#010101"/>
<path d="M19.59 35.72H17.57V37.74H19.59V35.72Z" fill="#010101"/>
<path d="M21.61 35.72H19.59V37.74H21.61V35.72Z" fill="#010101"/>
<path d="M23.63 35.72H21.61V37.74H23.63V35.72Z" fill="#010101"/>
<path d="M25.64 35.72H23.62V37.74H25.64V35.72Z" fill="#010101"/>
<path d="M29.68 35.72H27.66V37.74H29.68V35.72Z" fill="#010101"/>
<path d="M31.69 35.72H29.67V37.74H31.69V35.72Z" fill="#010101"/>
<path d="M33.71 35.72H31.69V37.74H33.71V35.72Z" fill="#010101"/>
<path d="M35.73 35.72H33.71V37.74H35.73V35.72Z" fill="#010101"/>
<path d="M37.74 35.72H35.72V37.74H37.74V35.72Z" fill="#010101"/>
<path d="M39.76 35.72H37.74V37.74H39.76V35.72Z" fill="#010101"/>
<path d="M41.78 35.72H39.76V37.74H41.78V35.72Z" fill="#010101"/>
<path d="M43.79 35.72H41.77V37.74H43.79V35.72Z" fill="#010101"/>
<path d="M45.81 35.72H43.79V37.74H45.81V35.72Z" fill="#010101"/>
<path d="M49.84 35.72H47.82V37.74H49.84V35.72Z" fill="#010101"/>
<path d="M51.86 35.72H49.84V37.74H51.86V35.72Z" fill="#010101"/>
<path d="M21.61 37.74H19.59V39.76H21.61V37.74Z" fill="#010101"/>
<path d="M23.63 37.74H21.61V39.76H23.63V37.74Z" fill="#010101"/>
<path d="M25.64 37.74H23.62V39.76H25.64V37.74Z" fill="#010101"/>
<path d="M29.68 37.74H27.66V39.76H29.68V37.74Z" fill="#010101"/>
<path d="M31.69 37.74H29.67V39.76H31.69V37.74Z" fill="#010101"/>
<path d="M37.74 37.74H35.72V39.76H37.74V37.74Z" fill="#010101"/>
<path d="M45.81 37.74H43.79V39.76H45.81V37.74Z" fill="#010101"/>
<path d="M49.84 37.74H47.82V39.76H49.84V37.74Z" fill="#010101"/>
<path d="M51.86 37.74H49.84V39.76H51.86V37.74Z" fill="#010101"/>
<path d="M5.47999 39.76H3.45999V41.78H5.47999V39.76Z" fill="#010101"/>
<path d="M7.49 39.76H5.47V41.78H7.49V39.76Z" fill="#010101"/>
<path d="M9.50999 39.76H7.48999V41.78H9.50999V39.76Z" fill="#010101"/>
<path d="M11.53 39.76H9.51001V41.78H11.53V39.76Z" fill="#010101"/>
<path d="M13.54 39.76H11.52V41.78H13.54V39.76Z" fill="#010101"/>
<path d="M15.56 39.76H13.54V41.78H15.56V39.76Z" fill="#010101"/>
<path d="M17.58 39.76H15.56V41.78H17.58V39.76Z" fill="#010101"/>
<path d="M27.66 39.76H25.64V41.78H27.66V39.76Z" fill="#010101"/>
<path d="M37.74 39.76H35.72V41.78H37.74V39.76Z" fill="#010101"/>
<path d="M41.78 39.76H39.76V41.78H41.78V39.76Z" fill="#010101"/>
<path d="M45.81 39.76H43.79V41.78H45.81V39.76Z" fill="#010101"/>
<path d="M53.87 39.76H51.85V41.78H53.87V39.76Z" fill="#010101"/>
<path d="M5.47999 41.77H3.45999V43.79H5.47999V41.77Z" fill="#010101"/>
<path d="M17.58 41.77H15.56V43.79H17.58V41.77Z" fill="#010101"/>
<path d="M23.63 41.77H21.61V43.79H23.63V41.77Z" fill="#010101"/>
<path d="M25.64 41.77H23.62V43.79H25.64V41.77Z" fill="#010101"/>
<path d="M31.69 41.77H29.67V43.79H31.69V41.77Z" fill="#010101"/>
<path d="M33.71 41.77H31.69V43.79H33.71V41.77Z" fill="#010101"/>
<path d="M35.73 41.77H33.71V43.79H35.73V41.77Z" fill="#010101"/>
<path d="M37.74 41.77H35.72V43.79H37.74V41.77Z" fill="#010101"/>
<path d="M45.81 41.77H43.79V43.79H45.81V41.77Z" fill="#010101"/>
<path d="M5.47999 43.79H3.45999V45.81H5.47999V43.79Z" fill="#010101"/>
<path d="M9.50999 43.79H7.48999V45.81H9.50999V43.79Z" fill="#010101"/>
<path d="M11.53 43.79H9.51001V45.81H11.53V43.79Z" fill="#010101"/>
<path d="M13.54 43.79H11.52V45.81H13.54V43.79Z" fill="#010101"/>
<path d="M17.58 43.79H15.56V45.81H17.58V43.79Z" fill="#010101"/>
<path d="M21.61 43.79H19.59V45.81H21.61V43.79Z" fill="#010101"/>
<path d="M27.66 43.79H25.64V45.81H27.66V43.79Z" fill="#010101"/>
<path d="M29.68 43.79H27.66V45.81H29.68V43.79Z" fill="#010101"/>
<path d="M33.71 43.79H31.69V45.81H33.71V43.79Z" fill="#010101"/>
<path d="M35.73 43.79H33.71V45.81H35.73V43.79Z" fill="#010101"/>
<path d="M37.74 43.79H35.72V45.81H37.74V43.79Z" fill="#010101"/>
<path d="M39.76 43.79H37.74V45.81H39.76V43.79Z" fill="#010101"/>
<path d="M41.78 43.79H39.76V45.81H41.78V43.79Z" fill="#010101"/>
<path d="M43.79 43.79H41.77V45.81H43.79V43.79Z" fill="#010101"/>
<path d="M45.81 43.79H43.79V45.81H45.81V43.79Z" fill="#010101"/>
<path d="M5.47999 45.81H3.45999V47.83H5.47999V45.81Z" fill="#010101"/>
<path d="M9.50999 45.81H7.48999V47.83H9.50999V45.81Z" fill="#010101"/>
<path d="M11.53 45.81H9.51001V47.83H11.53V45.81Z" fill="#010101"/>
<path d="M13.54 45.81H11.52V47.83H13.54V45.81Z" fill="#010101"/>
<path d="M17.58 45.81H15.56V47.83H17.58V45.81Z" fill="#010101"/>
<path d="M21.61 45.81H19.59V47.83H21.61V45.81Z" fill="#010101"/>
<path d="M27.66 45.81H25.64V47.83H27.66V45.81Z" fill="#010101"/>
<path d="M33.71 45.81H31.69V47.83H33.71V45.81Z" fill="#010101"/>
<path d="M41.78 45.81H39.76V47.83H41.78V45.81Z" fill="#010101"/>
<path d="M51.86 45.81H49.84V47.83H51.86V45.81Z" fill="#010101"/>
<path d="M53.87 45.81H51.85V47.83H53.87V45.81Z" fill="#010101"/>
<path d="M5.47999 47.82H3.45999V49.84H5.47999V47.82Z" fill="#010101"/>
<path d="M9.50999 47.82H7.48999V49.84H9.50999V47.82Z" fill="#010101"/>
<path d="M11.53 47.82H9.51001V49.84H11.53V47.82Z" fill="#010101"/>
<path d="M13.54 47.82H11.52V49.84H13.54V47.82Z" fill="#010101"/>
<path d="M17.58 47.82H15.56V49.84H17.58V47.82Z" fill="#010101"/>
<path d="M25.64 47.82H23.62V49.84H25.64V47.82Z" fill="#010101"/>
<path d="M27.66 47.82H25.64V49.84H27.66V47.82Z" fill="#010101"/>
<path d="M31.69 47.82H29.67V49.84H31.69V47.82Z" fill="#010101"/>
<path d="M33.71 47.82H31.69V49.84H33.71V47.82Z" fill="#010101"/>
<path d="M37.74 47.82H35.72V49.84H37.74V47.82Z" fill="#010101"/>
<path d="M39.76 47.82H37.74V49.84H39.76V47.82Z" fill="#010101"/>
<path d="M45.81 47.82H43.79V49.84H45.81V47.82Z" fill="#010101"/>
<path d="M47.83 47.82H45.81V49.84H47.83V47.82Z" fill="#010101"/>
<path d="M49.84 47.82H47.82V49.84H49.84V47.82Z" fill="#010101"/>
<path d="M51.86 47.82H49.84V49.84H51.86V47.82Z" fill="#010101"/>
<path d="M53.87 47.82H51.85V49.84H53.87V47.82Z" fill="#010101"/>
<path d="M5.47999 49.84H3.45999V51.86H5.47999V49.84Z" fill="#010101"/>
<path d="M17.58 49.84H15.56V51.86H17.58V49.84Z" fill="#010101"/>
<path d="M21.61 49.84H19.59V51.86H21.61V49.84Z" fill="#010101"/>
<path d="M23.63 49.84H21.61V51.86H23.63V49.84Z" fill="#010101"/>
<path d="M33.71 49.84H31.69V51.86H33.71V49.84Z" fill="#010101"/>
<path d="M43.79 49.84H41.77V51.86H43.79V49.84Z" fill="#010101"/>
<path d="M45.81 49.84H43.79V51.86H45.81V49.84Z" fill="#010101"/>
<path d="M49.84 49.84H47.82V51.86H49.84V49.84Z" fill="#010101"/>
<path d="M51.86 49.84H49.84V51.86H51.86V49.84Z" fill="#010101"/>
<path d="M53.87 49.84H51.85V51.86H53.87V49.84Z" fill="#010101"/>
<path d="M5.47999 51.85H3.45999V53.87H5.47999V51.85Z" fill="#010101"/>
<path d="M7.49 51.85H5.47V53.87H7.49V51.85Z" fill="#010101"/>
<path d="M9.50999 51.85H7.48999V53.87H9.50999V51.85Z" fill="#010101"/>
<path d="M11.53 51.85H9.51001V53.87H11.53V51.85Z" fill="#010101"/>
<path d="M13.54 51.85H11.52V53.87H13.54V51.85Z" fill="#010101"/>
<path d="M15.56 51.85H13.54V53.87H15.56V51.85Z" fill="#010101"/>
<path d="M17.58 51.85H15.56V53.87H17.58V51.85Z" fill="#010101"/>
<path d="M21.61 51.85H19.59V53.87H21.61V51.85Z" fill="#010101"/>
<path d="M25.64 51.85H23.62V53.87H25.64V51.85Z" fill="#010101"/>
<path d="M29.68 51.85H27.66V53.87H29.68V51.85Z" fill="#010101"/>
<path d="M37.74 51.85H35.72V53.87H37.74V51.85Z" fill="#010101"/>
<path d="M39.76 51.85H37.74V53.87H39.76V51.85Z" fill="#010101"/>
<path d="M47.83 51.85H45.81V53.87H47.83V51.85Z" fill="#010101"/>
<path d="M53.87 51.85H51.85V53.87H53.87V51.85Z" fill="#010101"/>
</g>
<defs>
<clipPath id="clip0_2_34">
<rect width="57.62" height="57.62" fill="white"/>
</clipPath>
</defs>
</svg>
